<svg xmlns="http://www.w3.org/2000/svg" width="100%" height="100%" viewBox="0 0 20 20" fill="none">
  <rect width="20" height="20" rx="4" fill="#FF991F"/>
  <rect width="20" height="20" rx="4" fill="url(#paint0_linear_2163_24057)" style="mix-blend-mode:overlay"/>
  <path d="M1.97561 5.99658L3.56111 9.43008L1.84961 13.0001H3.66611L4.21211 11.6771C4.40111 11.0996 4.45361 10.8791 4.49561 10.6166H4.52711C4.54811 10.8686 4.61111 11.1101 4.77911 11.5826L5.34611 13.0001H7.20461L5.49311 9.44058L7.07861 5.99658H5.28311L4.86311 7.06758C4.85261 7.08858 4.83161 7.16208 4.80011 7.25658C4.75811 7.44558 4.70561 7.63458 4.65311 7.82358C4.60061 8.02308 4.57961 8.10708 4.56911 8.23308H4.52711C4.49561 8.02308 4.43261 7.78158 4.27511 7.23558L3.82361 5.99658H1.97561Z" fill="white"/>
  <path d="M7.53437 5.99658V13.0001H9.05687V9.78708L9.02537 9.34608L8.98337 8.41158C8.98337 8.33808 8.96237 8.00208 8.92037 7.47708H8.98337C9.05687 7.90758 9.10937 8.21208 9.18287 8.53758C9.24587 8.87358 9.34037 9.28308 9.44537 9.77658L10.1804 13.0001H11.3984L12.1544 9.59808C12.2909 8.98908 12.5324 7.79208 12.5744 7.47708H12.6374C12.6059 7.80258 12.5849 8.01258 12.5744 8.22258L12.5534 8.98908C12.5429 9.25158 12.5324 9.52458 12.5219 9.80808V13.0001H14.0444V5.99658H11.6714L11.2409 8.10708C11.0834 8.74758 10.8419 10.3751 10.8419 10.8161L10.7999 10.8266C10.7894 10.2911 10.5269 8.61108 10.3274 7.85508L9.92837 5.99658H7.53437Z" fill="white"/>
  <path d="M14.8685 5.99658V13.0001H18.89V11.6666H16.5275V5.99658H14.8685Z" fill="white"/>
  <defs>
    <linearGradient id="paint0_linear_2163_24057" x1="-9.95187" y1="9.95187" x2="9.95187" y2="29.8556" gradientUnits="userSpaceOnUse">
      <stop stop-color="white" stop-opacity="0.245559"/>
      <stop offset="1" stop-opacity="0.498578"/>
    </linearGradient>
  </defs>
</svg>