<svg xmlns="http://www.w3.org/2000/svg" width="100%" height="100%" viewBox="0 0 20 20" fill="none">
  <g clip-path="url(#clip0_922_22603)">
    <path d="M16 0H4C1.79086 0 0 1.79086 0 4V16C0 18.2091 1.79086 20 4 20H16C18.2091 20 20 18.2091 20 16V4C20 1.79086 18.2091 0 16 0Z" fill="#A1D237"/>
    <path d="M16 0H4C1.79086 0 0 1.79086 0 4V16C0 18.2091 1.79086 20 4 20H16C18.2091 20 20 18.2091 20 16V4C20 1.79086 18.2091 0 16 0Z" fill="url(#paint0_linear_922_22603)" style="mix-blend-mode:overlay"/>
    <path d="M8.32086 14V12.6807H6.32086C5.92513 12.6807 5.72193 12.6927 5.58289 12.7166C5.64706 12.6207 5.68984 12.5367 5.73262 12.4528C5.7861 12.3568 5.83957 12.2609 5.89305 12.1529L8.28877 7.22339V6H4.17112V7.31934H6.20321C6.39572 7.31934 6.59893 7.30735 6.69519 7.29535C6.58824 7.47526 6.49198 7.65517 6.41711 7.81109L4 12.8246V14H8.32086ZM10.4813 14V6H9.03743V14H10.4813ZM12.9519 14V10.8096H13.4439C14.2139 10.8096 14.5241 10.7616 14.877 10.6057C15.5936 10.2699 16 9.47826 16 8.38681C16 7.45127 15.6898 6.69565 15.1444 6.32384C14.8342 6.09595 14.3743 6 13.6364 6H11.508V14H12.9519ZM13.4118 9.6102H12.9519V7.1994H13.3797C13.7219 7.1994 13.9679 7.24738 14.107 7.34333C14.385 7.53523 14.5241 7.87106 14.5241 8.38681C14.5241 8.91454 14.4064 9.25037 14.1497 9.44228C13.9893 9.57421 13.8075 9.6102 13.4118 9.6102Z" fill="white"/>
  </g>
  <defs>
    <linearGradient id="paint0_linear_922_22603" x1="-9.95187" y1="9.95187" x2="9.95187" y2="29.8556" gradientUnits="userSpaceOnUse">
      <stop stop-color="white" stop-opacity="0.245559"/>
      <stop offset="1" stop-opacity="0.498578"/>
    </linearGradient>
    <clipPath id="clip0_922_22603">
      <rect width="20" height="20" fill="white"/>
    </clipPath>
  </defs>
</svg>