<svg xmlns="http://www.w3.org/2000/svg" width="100%" height="100%" viewBox="0 0 20 20" fill="none">
  <rect width="20" height="20" rx="4" fill="#FF5630"/>
  <rect width="20" height="20" rx="4" fill="url(#paint0_linear_0_16087)" style="mix-blend-mode:overlay"/>
  <path fill-rule="evenodd" clip-rule="evenodd" d="M4.55535 13.6488V11.0388H4.92535C5.65535 11.0388 5.93535 10.9988 6.27535 10.8688C6.97535 10.5988 7.36535 9.92876 7.36535 8.99876C7.36535 8.21876 7.07535 7.57876 6.57535 7.25876C6.27535 7.06876 5.82535 6.97876 5.09535 6.97876H2.98535V13.6488H4.55535ZM4.84535 9.90876H4.54535V8.10876H4.84535C5.51535 8.10876 5.75535 8.34876 5.75535 9.02876C5.75535 9.66876 5.51535 9.90876 4.84535 9.90876ZM11.6393 13.4388C11.2793 13.5988 10.9993 13.6488 10.4393 13.6488H8.21935V6.97876H10.2593C11.2393 6.97876 11.7193 7.11876 12.1093 7.52876C12.5993 8.02876 12.7693 8.71876 12.7693 10.1388C12.7693 10.9388 12.7093 11.6788 12.6093 12.1588C12.4893 12.7388 12.1193 13.2188 11.6393 13.4388ZM10.0793 12.5188H9.79935V8.10876H10.0193C10.9713 8.10876 11.1466 8.35839 11.1586 9.95112L11.1593 10.1488C11.1593 12.2088 11.0193 12.5188 10.0793 12.5188ZM15.3333 10.8188V13.6488H13.7533V6.97876H17.6033V8.23876H15.3333V9.58876H17.4433V10.8188H15.3333Z" fill="white"/>
  <defs>
    <linearGradient id="paint0_linear_0_16087" x1="-9.95187" y1="9.95187" x2="9.95187" y2="29.8556" gradientUnits="userSpaceOnUse">
      <stop stop-color="white" stop-opacity="0.245559"/>
      <stop offset="1" stop-opacity="0.498578"/>
    </linearGradient>
  </defs>
</svg>