<svg xmlns="http://www.w3.org/2000/svg" width="100%" height="100%" viewBox="0 0 20 20" fill="none">
  <path fill-rule="evenodd" clip-rule="evenodd" d="M18 6.60751L11.392 -0.000488281L5 0.000113437C3.34315 0.000113437 2 1.34326 2 3.00011V17.0001C2 18.657 3.34315 20.0001 5 20.0001H15C16.6569 20.0001 18 18.657 18 17.0001V6.60751ZM17 8.00011L10 1.00011V6.00011C10 7.10468 10.8954 8.00011 12 8.00011H17Z" fill="#AABFFC"/>
  <path fill-rule="evenodd" clip-rule="evenodd" d="M18 6.60751L11.392 -0.000488281L5 0.000113437C3.34315 0.000113437 2 1.34326 2 3.00011V17.0001C2 18.657 3.34315 20.0001 5 20.0001H15C16.6569 20.0001 18 18.657 18 17.0001V6.60751ZM17 8.00011L10 1.00011V6.00011C10 7.10468 10.8954 8.00011 12 8.00011H17Z" fill="url(#paint0_linear_0_16113)" style="mix-blend-mode:overlay"/>
  <defs>
    <linearGradient id="paint0_linear_0_16113" x1="-5.9615" y1="9.95168" x2="13.4572" y2="25.4862" gradientUnits="userSpaceOnUse">
      <stop stop-color="white" stop-opacity="0.245559"/>
      <stop offset="1" stop-opacity="0.498578"/>
    </linearGradient>
  </defs>
</svg>